<svg width="246" height="362" viewBox="0 0 246 362" fill="none" xmlns="http://www.w3.org/2000/svg">
<path fill-rule="evenodd" clip-rule="evenodd" d="M181.274 172.645C181.521 178.332 177.234 177.426 173.937 179.569C169.321 182.454 158.44 187.977 153.247 184.762C140.058 176.601 135.277 162.093 147.559 150.388C150.197 147.833 156.462 134.561 160.419 135.963C173.443 143.217 181.109 168.358 181.274 172.645Z" fill="#F7F7F7" stroke="black" stroke-width="1.46007"/>
<path fill-rule="evenodd" clip-rule="evenodd" d="M87.9672 315.663C88.297 317.641 96.9522 316.982 100.826 320.114C102.97 321.845 102.97 322.257 104.783 324.73C106.432 326.873 111.46 327.121 107.998 320.938C106.184 317.723 103.217 315.58 100.249 314.426C94.9739 312.448 89.5334 312.86 88.6267 310.799C88.2145 309.81 88.297 311.294 88.297 311.459C88.297 312.201 87.8024 314.838 87.9672 315.663Z" fill="#F7F7F7" stroke="#0D0F1D" stroke-width="1.4247"/>
<path fill-rule="evenodd" clip-rule="evenodd" d="M107.744 324.483C108.486 324.071 109.393 324.318 109.805 324.977L114.586 333.385C114.998 334.127 114.751 335.034 114.091 335.446C113.35 335.858 112.443 335.693 112.031 334.951L107.167 326.544C106.755 325.802 107.002 324.895 107.744 324.483Z" fill="#F7F7F7" stroke="#0D0F1D" stroke-width="1.29812"/>
<path fill-rule="evenodd" clip-rule="evenodd" d="M112.452 334.869C112.369 334.539 112.782 334.045 113.441 333.88C114.1 333.633 114.76 333.715 114.842 334.045C114.925 334.457 114.513 334.869 113.853 335.116C113.194 335.364 112.534 335.281 112.452 334.869Z" fill="#0D0F1D"/>
<path fill-rule="evenodd" clip-rule="evenodd" d="M53.4296 349.377C71.4819 349.377 86.0722 351.026 85.9074 355.147C85.8249 359.269 71.1522 361 53.0999 361C35.1299 361 9.90605 361 9.98848 356.878C10.1533 352.839 35.3772 349.377 53.4296 349.377Z" fill="#0D0F1D" stroke="black" stroke-width="1.29812"/>
<path fill-rule="evenodd" clip-rule="evenodd" d="M201.468 349.377C183.416 349.377 168.743 351.026 168.661 355.147C168.578 359.269 183.168 361 201.138 361C219.191 361 244.415 361 244.497 356.878C244.579 352.839 219.52 349.377 201.468 349.377Z" fill="#0D0F1D" stroke="black" stroke-width="1.29812"/>
<path fill-rule="evenodd" clip-rule="evenodd" d="M137.175 57.1588C133.63 25.7526 102.471 2.42455 72.6312 20.8067C63.7287 26.3296 58.6179 34.5727 55.4856 43.6401C48.2316 64.4952 50.3749 95.3244 32.3225 138.106C19.1335 178.333 76.9176 197.704 30.0144 241.887C27.2942 252.521 26.3875 277.25 17.1552 291.263C15.1769 294.148 14.6823 297.528 14.1877 300.248C12.3742 310.882 20.6997 317.559 30.0968 324.813C34.713 328.275 39.494 333.385 43.4507 336.353C62.9044 350.778 59.4423 347.481 67.7678 347.481C76.0109 347.481 104.202 352.51 104.532 341.381C104.779 331.325 100.905 325.884 96.7835 321.103C91.8376 315.251 86.3972 310.222 79.5554 303.793C77.3298 301.814 124.068 318.63 153.001 299.341C153.166 299.259 167.756 319.867 170.724 323.246C186.056 340.31 192.568 354.323 213.918 328.852C222.078 319.125 205.675 328.11 214.495 316.405C220.347 308.656 218.287 301.732 211.61 300.248C202.542 298.27 206.911 291.016 199.328 291.016C196.607 279.228 199.74 263.072 196.937 256.642C196.772 256.312 205.345 240.898 204.273 217.487C203.202 194.736 174.928 162.176 164.871 158.384C165.119 159.456 166.932 137.776 158.772 124.175C136.433 87.1637 183.006 84.4435 141.131 58.0656C139.4 56.994 139.153 56.994 137.175 57.1588Z" fill="#98EFE4"/>
<path d="M137.671 58.3952C134.044 25.5876 103.957 3.99066 74.1991 19.6526C63.3182 25.4227 54.9103 37.0455 51.8603 55.675C48.5631 76.1179 47.4091 102.496 32.3242 138.106" stroke="black" stroke-width="1.4247"/>
<path d="M34.0562 133.82C30.0995 143.134 67.3583 173.222 65.0503 177.343C64.803 177.755 43.5358 249.8 52.5208 251.861" stroke="black" stroke-width="1.42372"/>
<path d="M161.904 160.61C196.442 175.283 212.104 220.372 197.349 255.735C197.267 255.9 195.453 287.966 198.75 294.56C200.729 298.517 220.018 286.482 221.914 308.409C222.078 310.222 233.454 306.678 224.634 317.229C221.666 320.773 215.484 327.285 212.434 330.665C205.18 338.579 177.236 329.594 161.657 316.487C158.194 313.519 153.578 304.04 151.93 301.567" stroke="black" stroke-width="1.42372"/>
<path d="M76.5869 299.918C79.9665 303.71 89.5285 312.777 94.9689 319.125C108.735 335.281 103.542 346.822 99.5026 347.151C92.9906 347.563 72.4653 347.728 68.6735 347.481C59.1939 346.986 58.1223 346.739 52.7643 342.37C44.3564 335.528 34.6295 328.275 25.4797 320.691C13.0326 310.305 12.538 303.957 18.2258 289.779C22.677 278.569 29.931 242.381 30.5904 241.227" stroke="black" stroke-width="1.42372"/>
<path fill-rule="evenodd" clip-rule="evenodd" d="M101.893 347.646C95.4636 348.058 74.8559 348.223 71.1465 348.058C61.5845 347.563 60.5954 347.316 55.1549 342.947C46.747 336.105 30.9202 335.611 21.7704 327.945C13.6922 321.268 7.922 317.971 8.25172 311.459C8.49902 307.832 12.7854 301.732 14.8462 296.703C19.2975 285.493 26.0568 296.951 26.7162 295.797C27.2933 300.743 53.0117 313.107 63.2331 313.107C66.6128 313.107 76.9991 310.882 84.6652 310.634C94.969 310.305 116.484 346.739 101.893 347.646Z" fill="#C584F6" stroke="black" stroke-width="1.42372"/>
<path d="M75.6797 299.176C85.0768 306.348 109.229 313.272 132.722 307.584C160.089 300.908 186.961 280.547 198.09 254.004" stroke="black" stroke-width="1.42405"/>
<path fill-rule="evenodd" clip-rule="evenodd" d="M53.9144 309.81C53.832 308.821 67.7628 324.813 70.6479 326.214C71.3898 326.626 95.0475 327.121 95.0475 326.214C95.0475 323.494 87.2165 314.179 86.5571 312.201C77.9018 312.201 62.4872 310.799 53.9144 309.81Z" fill="#E9CCFF" stroke="black" stroke-width="1.29812"/>
<path fill-rule="evenodd" clip-rule="evenodd" d="M96.6204 322.669C91.5097 319.537 70.325 313.437 54.8279 312.448C53.0145 311.788 52.6023 316.981 56.6414 316.981C77.5789 321.021 82.195 322.257 94.9718 326.791C96.1258 327.203 99.7528 325.06 96.6204 322.669Z" fill="#F7F7F7" stroke="black" stroke-width="1.29812"/>
<path fill-rule="evenodd" clip-rule="evenodd" d="M65.3798 323.659C68.5946 320.526 80.8768 314.509 88.3781 313.107C89.4497 312.448 92.1699 316.982 89.697 316.982C76.7553 321.103 76.0959 322.917 68.1825 327.45C67.4406 327.863 63.4015 326.049 65.3798 323.659Z" fill="#F7F7F7" stroke="black" stroke-width="1.29812"/>
<path fill-rule="evenodd" clip-rule="evenodd" d="M106.261 245.019C110.3 253.015 180.283 251.614 202.952 234.551C204.436 233.479 200.644 246.833 199.078 254.664C197.924 260.764 199.984 283.35 199.078 284.833C191.247 286.152 162.314 320.526 161.654 319.619C159.181 316.157 153.741 302.309 152.669 302.639C151.35 302.968 147.394 306.43 136.595 308.161C124.643 310.14 103.705 310.717 90.5162 306.843C88.95 306.348 87.8784 312.613 87.4663 313.025C86.8892 313.52 75.6786 316.24 59.5222 312.53C40.6455 308.079 16.7405 293.489 17.8121 290.933C21.5215 282.525 26.8795 242.876 27.9511 236.694C27.9511 236.694 39.5739 237.93 49.7129 240.733C64.0559 244.607 91.4229 259.445 106.013 246.091C106.508 245.596 105.519 243.536 106.261 245.019Z" fill="#E9CCFF" stroke="black" stroke-width="1.4247"/>
<path fill-rule="evenodd" clip-rule="evenodd" d="M15.0865 246.75C79.2178 277.58 210.942 253.757 212.014 242.299C214.487 217.24 198.166 184.927 179.206 168.193C174.673 164.154 169.727 160.61 164.863 158.384C164.204 156.406 158.764 155.499 151.427 143.629C144.503 132.418 151.098 146.514 119.444 146.514C86.719 146.514 65.9464 140.826 36.601 127.555C35.6118 127.143 25.6377 142.805 19.3729 156.983C11.9541 173.634 8.16231 189.296 9.48121 190.285C15.0865 194.324 24.8958 196.138 25.1431 194.819C25.4728 193.417 13.273 245.844 15.0865 246.75Z" fill="#F7F7F7" stroke="black" stroke-width="1.4247"/>
<path d="M71.3945 193.829C74.4445 193.665 76.5052 192.758 76.5877 192.758C77.8241 192.263 78.566 191.851 78.566 191.521C78.4836 189.955 80.5444 168.358 81.8633 167.122" stroke="black" stroke-width="1.4247"/>
<path fill-rule="evenodd" clip-rule="evenodd" d="M155.802 307.914C156.626 307.667 177.399 286.894 181.85 283.679C188.857 278.486 192.236 276.261 199.161 274.2C200.48 273.788 197.924 260.351 199.078 254.334C199.161 254.087 193.308 270.903 171.958 289.202C164.375 295.714 152.34 302.061 152.422 302.061C153.082 302.309 155.72 307.997 155.802 307.914Z" fill="black"/>
<path fill-rule="evenodd" clip-rule="evenodd" d="M40.4791 118.487C59.5207 128.049 88.3715 137.034 113.925 138.106C127.773 138.766 130.082 137.611 142.611 135.056C145.661 134.397 152.173 138.93 146.65 142.64C144.507 144.124 138.325 145.195 132.884 146.184C106.918 150.965 65.703 141.898 40.1494 130.275C38.9954 129.698 36.0279 128.791 35.7806 127.555C35.6157 126.978 38.3359 117.333 40.4791 118.487Z" fill="#F7F7F7" stroke="black" stroke-width="1.29812"/>
<path fill-rule="evenodd" clip-rule="evenodd" d="M97.5204 286.317C97.9326 286.647 93.8935 300.907 96.7786 307.914C96.4488 307.914 90.7611 306.678 89.9368 307.09C89.6071 307.255 89.5246 307.667 89.2773 307.419L97.5204 286.317Z" fill="black" stroke="black" stroke-width="1.29812"/>
<path fill-rule="evenodd" clip-rule="evenodd" d="M65.4584 360.588C72.1353 360.752 82.1095 360.34 90.5174 360.175C98.5957 359.928 105.19 359.928 106.014 359.516C110.466 357.538 113.928 341.464 106.756 341.793C103.047 341.958 101.069 332.808 96.7822 332.891C96.2876 332.891 91.2593 332.479 90.5999 332.891C87.2202 335.034 84.2527 342.288 70.8989 342.041C63.7274 341.958 57.1329 341.628 54.9073 340.969C41.3886 337.012 26.5511 324.4 16.2472 315.498C13.527 313.107 11.3013 311.211 8.99327 309.48C8.82841 309.398 9.90001 307.172 9.73515 307.09C6.19062 305.441 2.64609 314.921 1.65692 318.795C0.255591 323.988 1.24476 326.049 3.2231 327.945C10.3122 334.457 17.8958 340.145 25.5619 345.915C38.7508 355.971 49.1371 360.093 65.4584 360.588Z" fill="#F7F7F7" stroke="black" stroke-width="1.29812"/>
<path d="M16.2461 315.498C18.142 311.211 21.1095 298.682 20.6149 294.23" stroke="black" stroke-width="1.29812"/>
<path d="M24.9883 297.28C34.3854 330.088 48.2338 344.843 47.6568 312.86C47.6568 312.613 47.6568 308.738 47.4919 308.574" stroke="black" stroke-width="1.29812"/>
<path d="M95.8789 326.791C98.4343 327.533 102.061 329.264 103.215 329.593" stroke="black" stroke-width="1.29812"/>
<path d="M66.6929 327.203C67.0226 326.543 44.6014 336.105 44.6838 335.941" stroke="black" stroke-width="1.29812"/>
<path fill-rule="evenodd" clip-rule="evenodd" d="M71.0664 325.967C71.1488 325.39 75.188 323.988 76.0947 323.906C77.496 323.823 79.7217 322.587 80.9581 322.587C80.9581 322.257 78.8973 321.433 78.4028 321.68C77.4136 322.175 71.0664 326.049 71.0664 325.967Z" fill="black" stroke="black" stroke-width="1.29812"/>
<path fill-rule="evenodd" clip-rule="evenodd" d="M90.1838 317.146C89.6892 317.311 87.7109 318.548 87.4636 318.96C87.4636 318.96 85.9798 318.548 86.3095 318.383C87.6284 317.723 88.9473 317.558 90.1838 317.146Z" fill="black" stroke="black" stroke-width="1.29812"/>
<path fill-rule="evenodd" clip-rule="evenodd" d="M56.6367 316.982C58.7799 317.064 64.4677 319.29 66.5284 320.361C68.4243 321.35 66.8582 321.35 69.8257 320.361C70.8148 320.032 71.0621 319.949 70.3203 319.784C68.8365 319.455 67.5176 319.207 66.0338 318.795C64.3852 318.3 61.088 317.971 59.2745 317.806C58.5326 317.806 57.1313 316.982 56.6367 316.982Z" fill="black" stroke="black" stroke-width="1.29812"/>
<path d="M78.1523 323.494C80.6253 323.494 80.955 323.494 83.2631 323.906C85.2414 324.235 86.2306 324.565 88.3738 325.06C92.4953 326.131 89.6927 325.389 87.9616 324.648C84.9117 323.329 83.1806 323.164 80.2955 322.504C79.8834 322.422 78.5645 323.081 78.1523 323.329L78.2348 323.081" stroke="black" stroke-width="1.29812"/>
<path d="M26.6367 297.693C33.2312 283.679 35.1271 261.011 37.5176 253.18L38.5068 253.839" stroke="black" stroke-width="1.29812"/>
<path d="M34.957 264.803C48.146 267.523 92.4114 271.15 99.8302 255.158L100.242 254.169" stroke="black" stroke-width="1.29812"/>
<path fill-rule="evenodd" clip-rule="evenodd" d="M24.9878 257.714C28.9445 260.022 64.6371 262.412 69.8302 260.269C69.9127 260.269 60.598 259.115 57.8777 258.703C42.2983 256.065 26.2243 251.449 26.2243 251.779C26.0594 252.933 24.7405 257.549 24.9878 257.714Z" fill="black"/>
<path fill-rule="evenodd" clip-rule="evenodd" d="M45.7569 308.656C43.7785 308.409 41.388 316.817 37.0192 319.537C34.7111 321.021 34.299 320.856 31.3314 321.928C28.6937 322.834 26.7153 327.45 33.8044 326.049C37.5138 325.307 40.4813 323.164 42.6245 320.691C46.3339 316.322 47.9001 310.964 50.2081 310.717C51.1973 310.635 49.8784 310.305 49.6311 310.222C48.9717 309.975 46.6636 308.821 45.7569 308.656Z" fill="#F7F7F7" stroke="#0D0F1D" stroke-width="1.4247"/>
<path fill-rule="evenodd" clip-rule="evenodd" d="M30.5076 324.73C30.6724 325.555 30.1779 326.379 29.3535 326.544L19.6267 328.605C18.8848 328.769 18.0605 328.275 17.8956 327.45C17.8132 326.626 18.3078 325.884 19.1321 325.719L28.859 323.659C29.6008 323.494 30.4251 323.988 30.5076 324.73Z" fill="#F7F7F7" stroke="#0D0F1D" stroke-width="1.29812"/>
<path fill-rule="evenodd" clip-rule="evenodd" d="M19.0544 326.131C19.3841 326.131 19.7138 326.626 19.7138 327.368C19.7138 328.027 19.3841 328.604 18.9719 328.604C18.6422 328.604 18.3125 328.027 18.3125 327.368C18.3949 326.626 18.6422 326.131 19.0544 326.131Z" fill="#0D0F1D"/>
<path fill-rule="evenodd" clip-rule="evenodd" d="M188.444 287.389C188.444 286.647 186.548 282.69 190.01 281.289C192.153 280.382 203.364 280.052 205.837 281.701C208.392 283.432 216.882 283.844 217.047 284.998C217.542 288.296 205.095 290.768 202.54 290.933C198.995 291.263 190.917 290.851 188.444 287.636V287.389Z" fill="#E9CCFF" stroke="black" stroke-width="1.29812"/>
<path fill-rule="evenodd" clip-rule="evenodd" d="M162.314 336.27C159.017 336.683 159.758 334.127 158.44 331.737C156.956 329.016 149.784 309.645 153.906 308.161C155.142 307.667 159.511 311.541 167.507 306.595C171.381 304.205 175.503 297.363 179.707 293.159C182.427 290.439 182.262 289.614 186.136 288.295C191.907 286.317 190.835 285.163 199.078 285.246C208.393 285.328 212.762 284.833 221.582 283.844C227.929 283.102 234.688 286.894 229.33 294.643C224.549 301.484 214.493 303.957 207.321 308.903C200.809 313.355 196.028 316.899 189.846 321.433C184.076 325.637 183.251 327.615 177.646 332.973C175.255 335.281 163.385 341.711 162.314 336.93C162.231 336.683 162.479 336.27 162.314 336.27Z" fill="#C584F6" stroke="black" stroke-width="1.29812"/>
<path fill-rule="evenodd" clip-rule="evenodd" d="M178.722 315.003C193.23 303.628 211.117 292.17 228.098 287.719C228.345 287.636 227.109 285.658 228.84 285.163C232.879 284.092 241.782 294.396 242.606 297.445C243.183 299.836 237.248 307.502 228.016 318.548C224.554 322.669 197.599 340.557 191.993 342.618C185.811 344.761 171.138 355.065 168.336 355.807C166.028 355.395 156.713 339.32 158.939 336.106C163.637 329.181 172.21 320.032 178.722 315.003Z" fill="#F7F7F7" stroke="black" stroke-width="1.29812"/>
<path fill-rule="evenodd" clip-rule="evenodd" d="M236.585 297.446C257.028 294.56 220.841 326.956 204.767 338.167C188.281 349.624 170.475 359.846 166.931 354.982C165.447 353.087 167.59 350.861 174.927 340.557C184.571 326.956 219.934 299.754 236.585 297.446Z" fill="#98EFE4" stroke="black" stroke-width="1.29812"/>
<path fill-rule="evenodd" clip-rule="evenodd" d="M203.284 280.877C206.499 280.217 210.455 282.855 204.768 283.597C203.284 283.844 200.729 285.658 197.761 286.729C194.629 287.883 192.073 289.285 191.744 288.708C189.188 283.762 200.811 281.454 203.284 280.877Z" fill="#F7F7F7" stroke="black" stroke-width="1.29812"/>
<path fill-rule="evenodd" clip-rule="evenodd" d="M203.114 287.389C203.032 285.575 207.813 281.042 210.533 281.866C210.863 281.948 211.605 282.113 211.522 282.525C212.099 282.855 207.236 288.625 205.422 288.625C203.939 288.708 203.197 288.625 203.114 287.389Z" fill="#F7F7F7" stroke="black" stroke-width="1.29812"/>
<path fill-rule="evenodd" clip-rule="evenodd" d="M15.832 193.747C15.9145 198.858 17.6455 215.591 20.8603 226.142C26.1359 243.041 34.6263 256.395 46.8261 265.874C50.0409 268.43 79.8809 268.265 86.4753 264.885C87.7942 264.226 102.549 267.523 102.632 255.983C102.632 245.596 83.343 247.41 82.1889 245.349C76.5012 235.045 74.7701 193.417 74.4404 193.5C64.4663 195.066 32.8128 196.138 20.3657 194.571C18.9644 194.406 16.7388 194.159 15.832 193.747Z" fill="#98EFE4" stroke="black" stroke-width="1.46007"/>
<path fill-rule="evenodd" clip-rule="evenodd" d="M16.2528 200.424C15.4285 200.342 55.8196 199.682 68.2667 194.159C69.0086 193.829 40.9821 195.643 40.3226 195.643C36.7781 195.643 32.4093 195.313 28.2053 195.231C23.8364 195.066 19.6325 195.725 16.5825 193.5C15.9231 193.005 16.2528 195.231 16.1704 196.138C16.1704 196.715 15.9231 199.929 15.6758 200.424H16.2528Z" fill="black"/>
<path fill-rule="evenodd" clip-rule="evenodd" d="M182.59 292.912C181.354 294.56 183.662 301.979 181.684 306.678C180.53 309.233 180.2 309.315 178.304 311.871C176.655 314.096 177.727 319.042 182.755 313.767C185.393 311.047 186.63 307.502 186.959 304.37C187.536 298.682 185.723 293.489 187.454 292.005C188.525 291.016 185.393 289.037 182.59 292.912Z" fill="#F7F7F7" stroke="#0D0F1D" stroke-width="1.4247"/>
<path fill-rule="evenodd" clip-rule="evenodd" d="M179.292 314.673C179.869 315.168 179.951 316.157 179.374 316.734L172.45 324.071C171.955 324.648 170.966 324.648 170.389 324.153C169.812 323.576 169.812 322.669 170.307 322.092L177.231 314.673C177.808 314.096 178.714 314.096 179.292 314.673Z" fill="#F7F7F7" stroke="#0D0F1D" stroke-width="1.29812"/>
<path fill-rule="evenodd" clip-rule="evenodd" d="M170.559 322.422C170.889 322.175 171.383 322.422 171.795 322.999C172.208 323.576 172.29 324.235 171.96 324.4C171.631 324.648 171.054 324.318 170.724 323.823C170.312 323.246 170.229 322.587 170.559 322.422Z" fill="#0D0F1D"/>
<path fill-rule="evenodd" clip-rule="evenodd" d="M46.8266 265.874L35.8633 254.993L41.551 265.627L46.8266 265.874Z" fill="black"/>
<path d="M205.675 288.79C205.015 290.027 204.356 296.621 205.015 297.363" stroke="black" stroke-width="1.46007"/>
<path fill-rule="evenodd" clip-rule="evenodd" d="M51.6133 44.382C54.5808 28.5553 56.3118 21.4662 65.4617 11.6569C75.6007 0.940835 94.3125 -3.26315 110.551 6.46372C117.558 10.6677 119.536 14.0474 123.905 25.0932C123.905 25.1756 121.597 20.1473 111.458 20.2297C100.825 20.2297 83.8438 25.6702 79.6398 26.9891C61.4226 32.5944 51.6133 44.382 51.6133 44.382Z" fill="#C584F6" stroke="#0D0F1D" stroke-width="1.4247"/>
<path fill-rule="evenodd" clip-rule="evenodd" d="M52.9628 48.7792C51.835 50.0051 52.2378 51.8847 51.7544 51.6396C48.6126 50.0051 49.4987 43.0585 50.7877 37.9916C52.1572 32.4343 52.8017 26.7953 54.2517 25.4878C67.6246 13.3108 104.118 7.59011 121.277 11.8398C123.613 12.4119 125.869 17.4788 127.963 21.6467C130.058 25.7329 131.75 29.2471 128.527 31.2085C128.044 31.4536 108.549 29.0836 88.8922 34.6409C68.9135 40.2799 56.2657 47.6351 52.9628 48.7792Z" fill="#C584F6" stroke="black" stroke-width="1.46007"/>
<path d="M125.053 28.4727C126.619 27.3187 125.053 24.9282 123.569 22.1255C122.085 19.158 120.024 14.7067 119.859 14.6243" stroke="black" stroke-width="1.46007"/>
<path d="M119.371 28.4727C121.514 26.1647 119.206 22.3728 117.31 18.3337C116.404 16.4378 115.827 14.7067 115.332 13.8824" stroke="black" stroke-width="1.46007"/>
<path d="M113.682 28.4727C114.507 27.6484 115.084 24.9281 114.177 22.9498C113.105 20.8066 112.034 16.685 110.468 14.377C110.138 13.9648 110.55 14.2121 109.891 13.7175" stroke="black" stroke-width="1.46007"/>
<path d="M54.4431 44.217C53.4539 43.3927 54.0309 42.2387 54.5255 39.3536C55.1025 35.9739 56.339 30.451 56.9984 26.9889" stroke="black" stroke-width="1.46007"/>
<path d="M59.4422 41.9914C58.1233 41.2495 58.7004 39.1063 59.1125 36.0564C59.5247 33.2537 60.8436 26.2471 61.4206 23.939" stroke="black" stroke-width="1.46007"/>
<path fill-rule="evenodd" clip-rule="evenodd" d="M60.5952 57.6533C58.1223 58.6425 52.517 71.2545 57.6277 70.2653C59.7709 69.8531 60.7601 61.2803 64.0573 60.3736C65.7884 59.879 67.9316 58.9722 69.168 58.5601C70.5694 58.0655 70.9815 58.1479 71.8058 60.0438C72.3828 61.3627 75.2679 69.1113 77.3287 68.2045C79.9665 67.1329 94.8865 62.3519 95.2986 62.3519C95.6283 62.3519 92.8257 53.5318 92.9906 49.9872C92.9906 49.6575 92.3311 45.4535 92.2487 45.7008L60.5952 57.6533Z" fill="#E9CCFF" stroke="black" stroke-width="1.29812"/>
<path fill-rule="evenodd" clip-rule="evenodd" d="M99.2564 42.898C103.46 42.6507 109.231 42.321 115.413 41.6615C119.205 41.2494 119.534 41.9913 120.111 42.4034C122.749 44.2169 123.491 44.052 124.315 43.3102C125.222 42.4858 126.129 41.0021 129.921 40.7548C131.734 40.5899 139.73 39.5183 145.006 39.1062C149.539 38.7764 150.693 39.3535 151.683 43.3102C152.342 46.1128 153.414 50.9763 153.496 53.7789C153.578 57.1586 150.941 57.5707 150.116 57.7356C147.066 58.3951 137.752 59.714 131.569 59.9612C128.437 60.1261 128.602 59.3842 127.365 57.9829C126.706 57.1586 125.222 56.9937 124.563 57.9005C123.821 58.9721 123.326 61.1977 119.287 61.1977C116.484 61.2801 108.489 62.599 102.883 63.0112C98.8443 63.2585 96.5362 63.3409 95.2173 61.6923C94.393 60.7031 94.2281 59.0545 93.816 57.3234C93.3214 55.1802 92.7444 51.883 92.4971 50.1519C92.0025 45.948 92.3322 43.3102 99.2564 42.898Z" fill="#E9CCFF" stroke="black" stroke-width="1.29812"/>
<path fill-rule="evenodd" clip-rule="evenodd" d="M97.9384 46.0304L116.733 44.2994C118.381 44.1345 119.865 45.2061 120.195 46.7723L121.761 55.1803C122.091 56.7465 121.019 58.3127 119.453 58.4775L100.576 60.2086C99.01 60.3734 97.4438 59.3843 97.1141 57.7356L95.5479 49.3277C95.2182 47.7615 96.2898 46.1953 97.9384 46.0304Z" fill="black" stroke="black" stroke-width="0.572474"/>
<path fill-rule="evenodd" clip-rule="evenodd" d="M128.77 43.3102L145.668 41.5792C147.317 41.4143 148.8 42.4035 149.13 44.0521L150.779 52.4601C151.026 54.0263 149.954 55.5925 148.388 55.7573L131.49 57.4884C129.841 57.6533 128.275 56.5817 128.028 55.0155L126.379 46.6075C126.132 45.0413 127.204 43.4751 128.77 43.3102Z" fill="black" stroke="black" stroke-width="0.572474"/>
<path d="M117.721 45.2886L109.148 58.1478" stroke="white" stroke-width="1.29812"/>
<path d="M136.268 43.9697L130.168 53.8615" stroke="white" stroke-width="1.29812"/>
<path d="M148.794 48.8331L145.414 54.5208" stroke="white" stroke-width="1.29812"/>
<path fill-rule="evenodd" clip-rule="evenodd" d="M121.348 60.9505C119.452 62.3518 101.152 62.1869 93.1566 71.1719C92.8269 71.5841 88.0459 67.4625 77.3299 68.2044C72.3016 68.6166 81.1217 67.3801 83.4298 66.7207C86.5621 65.7315 90.354 63.6707 93.6512 62.764C97.1133 61.7748 94.6404 62.2694 98.4322 62.5991C102.966 63.0113 108.406 62.1045 113.105 61.8572C114.012 61.7748 121.76 60.7032 121.348 60.9505Z" fill="black"/>
<path d="M146.483 160.527C138.817 163.742 107.081 171.985 88.7813 164.237C88.4516 164.072 88.3692 164.319 88.4516 163.742" stroke="black" stroke-width="1.29812"/>
<path fill-rule="evenodd" clip-rule="evenodd" d="M86.3098 112.717C86.2274 112.47 90.2665 126.483 104.197 132.089C104.197 131.182 104.527 127.637 103.785 127.39C92.7394 123.516 86.4747 113.459 86.3098 112.717Z" fill="black"/>
<path fill-rule="evenodd" clip-rule="evenodd" d="M101.314 129.698C100.819 129.945 99.2532 134.397 100.16 136.622C100.572 137.529 102.715 136.21 102.55 137.282C101.809 146.844 98.8411 155.499 101.561 167.534C101.726 168.523 103.787 168.853 105.188 171.573C107.414 176.024 110.052 183.938 111.123 187.235C112.277 190.615 112.03 193.994 112.607 195.725C114.008 199.847 115.41 198.198 116.564 187.647C116.976 184.35 117.058 176.024 113.926 170.007C113.102 168.441 113.102 168.276 111.618 166.875C111.618 166.875 110.958 157.56 111.206 155.087C111.288 153.85 106.837 129.121 104.611 129.286C102.715 129.368 103.127 128.626 101.314 129.698Z" fill="black" stroke="black" stroke-width="1.29812"/>
<path fill-rule="evenodd" clip-rule="evenodd" d="M137.749 136.128C137.749 136.128 140.47 134.644 140.47 135.221C140.717 139.343 141.953 158.796 142.613 162.176C142.778 163.248 144.756 163.907 145.91 166.792C147.971 171.738 149.29 179.816 149.455 180.558C149.867 183.443 150.114 189.048 152.505 183.278C153.823 180.146 154.565 169.595 149.619 161.599C147.559 158.219 149.784 146.926 149.537 146.102C149.042 144.618 146.817 141.156 145.333 136.54C144.756 134.726 143.437 130.605 142.118 131.182C141.541 131.347 137.09 134.479 136.266 136.128C136.266 136.293 137.832 135.963 137.749 136.128Z" fill="black" stroke="black" stroke-width="1.29812"/>
<path fill-rule="evenodd" clip-rule="evenodd" d="M157.612 110.574C160.497 118.57 169.318 161.022 165.855 200.754C165.196 208.997 159.838 207.513 158.437 202.237C157.86 199.682 157.612 195.973 157.035 192.758C156.129 187.894 153.656 165.72 152.007 159.456C149.534 150.223 145.907 139.837 142.857 131.759C142.692 131.347 142.61 131.017 142.445 130.605C142.445 130.605 142.692 130.358 143.599 129.286C145.33 126.978 147.061 123.763 147.886 121.29C148.298 120.136 140.879 118.982 142.61 118.982C149.369 119.312 158.354 113.789 157.612 110.574Z" fill="#F7F7F7" stroke="black" stroke-width="1.43249"/>
<path fill-rule="evenodd" clip-rule="evenodd" d="M127.941 123.516C121.841 129.533 106.344 132.666 105.438 125.164C106.839 134.479 113.598 170.089 137.256 208.832C142.119 216.828 146.653 213.943 145.169 208.09C144.51 205.205 142.944 201.248 141.872 197.786C140.223 192.428 137.338 179.239 135.772 172.233C131.403 153.273 128.518 126.483 127.941 123.516Z" fill="#F7F7F7"/>
<path d="M106.175 125.082L106.257 125.659L106.422 126.154L106.669 126.566L106.917 126.978L107.329 127.308L107.741 127.637L108.153 127.967L108.73 128.214L109.307 128.379L109.967 128.544L110.626 128.709H111.368L112.192 128.791H113.017L113.841 128.709L114.665 128.627L115.572 128.462L116.396 128.297L117.303 128.132L118.21 127.885L119.116 127.637L120.023 127.308L120.847 126.978L121.754 126.648L122.579 126.236L123.403 125.824L124.145 125.412L124.887 124.917L125.628 124.423L126.288 123.928L126.947 123.433L127.524 122.939L128.431 124.093L127.854 124.67L127.112 125.164L126.37 125.741L125.628 126.236L124.804 126.731L123.98 127.225L123.156 127.637L122.249 128.05L121.342 128.462L120.435 128.791L119.529 129.121L118.539 129.368L117.633 129.616L116.726 129.863L115.737 130.028L114.83 130.193L113.923 130.275H113.017L112.192 130.358L111.285 130.275L110.461 130.193L109.719 130.11L108.977 129.863L108.236 129.616L107.576 129.368L106.917 128.956L106.422 128.544L105.927 128.05L105.515 127.473L105.103 126.813L104.856 126.071L104.773 125.329L106.175 125.082ZM137.828 208.42L136.674 209.244L134.449 205.617L132.388 201.99L130.409 198.446L128.514 194.819L126.7 191.357L125.051 187.895L123.403 184.432L121.837 181.053L120.435 177.756L119.034 174.458L117.715 171.243L116.479 168.111L115.325 164.979L114.253 162.011L113.264 159.044L112.357 156.241L111.45 153.438L110.626 150.801L109.884 148.245L109.225 145.772L108.565 143.382L107.988 141.156L107.494 138.93L106.999 136.952L106.587 135.056L106.175 133.243L105.845 131.594L105.515 130.028L105.268 128.627L105.103 127.39L104.856 126.318L104.773 125.329L106.175 125.082L106.257 125.989L106.504 127.143L106.669 128.379L106.917 129.698L107.246 131.264L107.576 132.913L107.906 134.644L108.4 136.54L108.813 138.601L109.39 140.744L109.967 142.97L110.544 145.278L111.285 147.751L112.027 150.306L112.769 152.944L113.676 155.746L114.583 158.549L115.572 161.434L116.643 164.402L117.798 167.452L119.034 170.584L120.353 173.799L121.672 177.096L123.156 180.393L124.639 183.773L126.288 187.153L128.019 190.615L129.75 194.077L131.646 197.621L133.624 201.166L135.685 204.793L137.828 208.42ZM144.505 208.255L145.906 207.925L145.989 208.502L146.071 209.079L146.154 209.574V210.151V210.646V211.14L146.071 211.635L145.906 212.047L145.742 212.459L145.577 212.871L145.329 213.201L145.082 213.531L144.835 213.86L144.505 214.108L144.175 214.272L143.763 214.437L143.351 214.52H142.939H142.527L142.115 214.437L141.702 214.272L141.208 214.108L140.796 213.86L140.384 213.531L139.889 213.201L139.477 212.789L138.982 212.377L138.488 211.882L138.076 211.305L137.581 210.646L137.086 209.986L136.674 209.244L137.828 208.42L138.24 209.079L138.735 209.739L139.147 210.316L139.559 210.81L139.971 211.223L140.384 211.635L140.796 211.964L141.125 212.294L141.455 212.459L141.785 212.706L142.115 212.789L142.444 212.871L142.692 212.954H142.939H143.186H143.434L143.598 212.871L143.763 212.706L143.928 212.624L144.093 212.459L144.258 212.294L144.34 212.047L144.505 211.8L144.588 211.552L144.67 211.223L144.752 210.893V210.563V210.151V209.739L144.67 209.244L144.588 208.75L144.505 208.255ZM141.208 198.034L142.527 197.539L142.609 197.869L142.774 198.198L142.857 198.528L142.939 198.858L143.104 199.188L143.186 199.517L143.269 199.847L143.434 200.177L143.516 200.589L143.598 200.919L143.763 201.248L143.846 201.578L144.011 201.908L144.093 202.238L144.258 202.567L144.34 202.897L144.423 203.227L144.588 203.556L144.67 203.886L144.752 204.216L144.917 204.546L145 204.875L145.082 205.205L145.247 205.535L145.329 205.782L145.412 206.112L145.494 206.442L145.577 206.771L145.659 207.019L145.742 207.348L145.824 207.596L145.906 207.925L144.505 208.255L144.423 208.008V207.76L144.34 207.513L144.258 207.183L144.175 206.936L144.093 206.606L143.928 206.277L143.846 206.029L143.763 205.7L143.681 205.37L143.598 205.04L143.434 204.793L143.351 204.463L143.269 204.133L143.104 203.804L143.021 203.474L142.857 203.144L142.774 202.815L142.692 202.485L142.527 202.073L142.444 201.743L142.28 201.413L142.197 201.084L142.032 200.754L141.95 200.424L141.867 200.094L141.702 199.765L141.62 199.435L141.538 199.023L141.373 198.693L141.29 198.363L141.208 198.034ZM135.108 172.48L136.427 172.068L136.592 172.727L136.757 173.469L136.921 174.211L137.086 174.953L137.251 175.777L137.499 176.601L137.663 177.426L137.828 178.25L138.076 179.157L138.24 180.064L138.488 180.888L138.653 181.795L138.9 182.701L139.065 183.608L139.312 184.597L139.477 185.504L139.724 186.411L139.889 187.235L140.136 188.142L140.301 189.049L140.548 189.873L140.713 190.697L140.961 191.522L141.125 192.346L141.29 193.088L141.538 193.83L141.702 194.571L141.867 195.231L142.032 195.89L142.197 196.467L142.362 197.044L142.527 197.539L141.208 198.034L141.043 197.539L140.878 196.962L140.713 196.303L140.548 195.643L140.301 194.984L140.136 194.242L139.971 193.5L139.724 192.758L139.559 191.934L139.394 191.109L139.147 190.285L138.982 189.378L138.735 188.554L138.57 187.647L138.323 186.74L138.076 185.834L137.911 184.927L137.663 184.02L137.499 183.114L137.251 182.207L137.086 181.3L136.839 180.393L136.674 179.487L136.509 178.662L136.262 177.756L136.097 176.931L135.932 176.107L135.685 175.365L135.52 174.541L135.355 173.799L135.19 173.139L135.108 172.48ZM128.431 124.093L127.524 122.939L128.678 123.351L128.761 123.681V124.175L128.843 124.835L129.008 125.577L129.091 126.401L129.173 127.39L129.338 128.462L129.503 129.616L129.668 130.852L129.832 132.171L129.997 133.572L130.245 135.139L130.409 136.705L130.657 138.353L130.904 140.002L131.151 141.733L131.399 143.547L131.646 145.36L131.893 147.256L132.223 149.152L132.553 151.048L132.8 153.026L133.13 154.922L133.459 156.9L133.789 158.879L134.201 160.775L134.531 162.753L134.861 164.649L135.273 166.545L135.685 168.441L136.015 170.254L136.427 172.068L135.108 172.48L134.696 170.666L134.284 168.771L133.872 166.875L133.542 164.979L133.13 163.083L132.8 161.104L132.388 159.126L132.058 157.148L131.728 155.252L131.399 153.273L131.151 151.295L130.822 149.399L130.492 147.503L130.245 145.607L129.997 143.794L129.75 141.98L129.503 140.249L129.255 138.518L129.008 136.87L128.843 135.303L128.596 133.82L128.431 132.418L128.266 131.099L128.101 129.781L127.937 128.627L127.772 127.555L127.689 126.648L127.607 125.741L127.442 125L127.36 124.423V123.928L127.277 123.598L128.431 124.093ZM127.524 122.939L128.431 121.95L128.678 123.351L127.524 122.939Z" fill="black"/>
<path fill-rule="evenodd" clip-rule="evenodd" d="M120.687 63.1762C137.833 66.6383 148.631 83.8664 144.757 101.672C142.284 113.212 138.162 109.667 133.876 117.498C129.425 125.824 114.01 131.017 105.52 129.368C88.374 125.906 78.235 107.112 82.0268 89.3069C85.9011 71.4193 103.541 59.7965 120.687 63.1762Z" fill="#98EFE4"/>
<path fill-rule="evenodd" clip-rule="evenodd" d="M145.334 60.2086C154.484 63.7531 164.953 77.1894 164.129 101.919C163.799 111.151 158.523 119.889 145.911 121.62C141.625 122.279 138.163 121.208 136.102 120.878C118.709 117.993 104.861 101.342 108.57 84.6082C112.197 67.8747 136.102 56.6641 145.334 60.2086Z" fill="#98EFE4"/>
<path d="M143.518 58.8073C155.388 63.0937 164.291 79.4975 164.455 95.5716C164.703 111.233 157.366 123.268 139.644 121.95C137.253 121.785 134.698 121.125 132.555 120.054" stroke="black" stroke-width="1.42372"/>
<path d="M142.692 95.1595C140.879 107.442 137.416 118.158 123.815 126.236C109.06 135.056 89.5241 127.637 83.589 106.865C79.3026 91.3677 87.2984 77.1895 96.2834 67.2153" stroke="black" stroke-width="1.42372"/>
<path d="M157.363 70.0179C161.32 71.6666 177.394 79.0854 186.709 91.0379" stroke="black" stroke-width="1.42405"/>
<path d="M70.0693 98.0444L68.668 97.2201L69.6571 96.1485L70.7287 95.0769L71.8828 94.0877L73.0368 93.0986L74.2733 92.1918L75.5097 91.2027L76.7462 90.3783L78.0651 89.4716L79.3016 88.6473L80.6205 87.823L81.9393 87.0811L83.2582 86.3392L84.5771 85.6798L85.896 84.9379L87.2149 84.3609L88.5338 83.7014L89.7703 83.1244L91.0892 82.5474L92.2432 82.0528L93.4797 81.5582L94.6337 81.0636L95.7877 80.6515L96.8593 80.2393L97.9309 79.8272L98.8377 79.4974L99.8269 79.1677L100.651 78.838L101.475 78.5907L102.217 78.3434L102.877 78.1785L103.454 78.0137L103.948 77.8488L104.525 79.1677L104.031 79.3326L103.454 79.4974L102.877 79.7447L102.135 79.9096L101.393 80.1569L100.486 80.4866L99.5796 80.8163L98.5904 81.1461L97.6012 81.4758L96.5296 81.8879L95.458 82.3001L94.304 82.7947L93.15 83.2893L91.9135 83.7839L90.677 84.3609L89.4406 84.9379L88.1217 85.5149L86.8852 86.1744L85.5663 86.8338L84.2474 87.5757L83.0109 88.2351L81.6921 88.977L80.4556 89.8013L79.1367 90.6256L77.9002 91.4499L76.6638 92.2743L75.5097 93.181L74.3557 94.0877L73.2017 95.0769L72.1301 96.0661L71.0585 97.0553L70.0693 98.0444Z" fill="black"/>
<path d="M162.891 84.5259C166.435 87.4934 180.778 100.435 187.208 114.943" stroke="black" stroke-width="1.42405"/>
<path d="M160.086 97.2202C162.724 100.27 173.028 113.459 174.676 127.472" stroke="black" stroke-width="1.42405"/>
<path d="M99.9162 91.7798C96.4541 94.0879 82.6881 104.309 76.918 117.498" stroke="black" stroke-width="1.42405"/>
<path d="M93.406 108.843C91.0155 112.223 81.9481 126.813 81.3711 141.239" stroke="black" stroke-width="1.42405"/>
<path fill-rule="evenodd" clip-rule="evenodd" d="M108.402 81.4759C108.815 81.4759 109.227 81.8056 109.144 82.3002C109.144 82.7124 108.815 83.0421 108.32 83.0421C107.908 83.0421 107.578 82.7124 107.578 82.3002C107.578 81.8056 107.908 81.4759 108.402 81.4759Z" fill="black"/>
<path fill-rule="evenodd" clip-rule="evenodd" d="M103.703 89.6367C104.115 89.6367 104.445 89.9664 104.445 90.461C104.445 90.8731 104.115 91.2028 103.621 91.2028C103.209 91.2028 102.879 90.8731 102.879 90.461C102.879 89.9664 103.209 89.6367 103.703 89.6367Z" fill="black"/>
<path fill-rule="evenodd" clip-rule="evenodd" d="M98.3427 102.826C98.7549 102.826 99.0846 103.155 99.0846 103.65C99.0846 104.062 98.7549 104.474 98.2603 104.474C97.8481 104.474 97.436 104.062 97.5184 103.65C97.5184 103.155 97.8481 102.826 98.3427 102.826Z" fill="black"/>
<path fill-rule="evenodd" clip-rule="evenodd" d="M153.574 74.1396C153.986 74.1396 154.399 74.5517 154.399 74.9639C154.316 75.4585 153.986 75.7882 153.574 75.7882C153.08 75.7882 152.75 75.4585 152.75 74.9639C152.75 74.5517 153.162 74.1396 153.574 74.1396Z" fill="black"/>
<path fill-rule="evenodd" clip-rule="evenodd" d="M158.852 80.2395C159.346 80.2395 159.676 80.5692 159.676 80.9814C159.676 81.4759 159.264 81.8057 158.852 81.8057C158.357 81.8057 158.027 81.4759 158.027 80.9814C158.027 80.5692 158.439 80.2395 158.852 80.2395Z" fill="black"/>
<path fill-rule="evenodd" clip-rule="evenodd" d="M96.2036 85.8447C96.6158 85.8447 96.9455 86.2568 96.9455 86.669C96.9455 87.1636 96.5333 87.4933 96.1212 87.4933C95.709 87.4933 95.2969 87.1636 95.2969 86.669C95.3793 86.2568 95.709 85.8447 96.2036 85.8447Z" fill="black"/>
<path fill-rule="evenodd" clip-rule="evenodd" d="M91.0938 93.1811C91.5884 93.1811 91.9181 93.5108 91.9181 94.0054C91.9181 94.4176 91.506 94.8297 91.0938 94.8297C90.5993 94.8297 90.2695 94.4176 90.2695 94.0054C90.2695 93.5108 90.6817 93.1811 91.0938 93.1811Z" fill="black"/>
<path fill-rule="evenodd" clip-rule="evenodd" d="M135.861 70.1004C134.048 70.5125 123.744 66.391 122.837 61.61C121.601 54.7682 139.9 55.2628 140.89 57.9006C142.868 63.1762 138.417 69.6058 135.861 70.1004Z" fill="#98EFE4"/>
<path d="M122.254 61.7748L123.408 61.5275L123.491 61.8573L123.656 62.187L123.82 62.5167L123.985 62.9289L124.315 63.341L124.562 63.6708L124.975 64.0829L125.304 64.4126L125.716 64.8248L126.211 65.1545L126.623 65.5667L127.118 65.8964L127.612 66.2261L128.189 66.5558L128.684 66.8031L129.179 67.1329L129.756 67.3802L130.333 67.7099L130.827 67.9572L131.322 68.2045L131.899 68.3693L132.393 68.6166L132.888 68.7815L133.3 68.9463L133.795 69.0288L134.207 69.1936L134.537 69.2761L134.866 69.3585H135.196L135.443 69.4409H135.608L135.773 69.3585L136.02 70.8423H135.691H135.443H135.114L134.784 70.7598L134.372 70.6774L133.959 70.595L133.547 70.5125L133.053 70.3477L132.558 70.1828L132.064 69.9355L131.569 69.7707L130.992 69.5234L130.497 69.2761L129.92 69.0288L129.343 68.7815L128.766 68.4518L128.272 68.2045L127.695 67.8747L127.118 67.4626L126.623 67.1329L126.129 66.8031L125.634 66.391L125.139 65.9788L124.645 65.5667L124.233 65.1545L123.82 64.7424L123.491 64.3302L123.161 63.8356L122.831 63.341L122.584 62.8464L122.419 62.2694L122.254 61.7748ZM141.378 57.5709L140.307 58.2303V58.1479L140.224 58.0654L139.977 57.9006L139.565 57.7357L139.153 57.5709L138.658 57.406L138.081 57.2411L137.422 57.1587L136.68 57.0763L135.938 56.9938L135.196 56.9114L134.372 56.829H133.63H132.723L131.899 56.9114H131.074L130.25 57.0763L129.426 57.1587L128.684 57.3236L127.86 57.4884L127.118 57.6533L126.458 57.9006L125.799 58.1479L125.222 58.4776L124.727 58.8073L124.315 59.137L123.985 59.4668L123.656 59.8789L123.491 60.2087L123.408 60.6208L123.326 61.033L123.408 61.5275L122.254 61.7748L122.172 60.9505L122.254 60.2087L122.502 59.5492L122.749 58.9722L123.161 58.3952L123.656 57.9006L124.15 57.4884L124.727 57.1587L125.387 56.829L126.129 56.4993L126.87 56.252L127.612 56.0047L128.437 55.8398L129.261 55.6749L130.085 55.5925L130.992 55.5101L131.816 55.4276H132.723L133.547 55.3452L134.372 55.4276H135.196L136.02 55.5101L136.762 55.5925L137.504 55.6749L138.163 55.8398L138.823 56.0047L139.4 56.1695L139.895 56.3344L140.389 56.5817L140.801 56.829L141.131 57.1587L141.378 57.5709ZM136.02 70.8423L135.773 69.3585H135.938L136.185 69.2761L136.35 69.1112L136.597 69.0288L136.845 68.8639L137.092 68.6166L137.339 68.3693L137.669 68.122L137.916 67.8747L138.163 67.545L138.411 67.2153L138.658 66.8856L138.905 66.5558L139.153 66.1437L139.4 65.7315L139.565 65.4018L139.812 64.9072L139.977 64.4951L140.142 64.0829L140.307 63.6708L140.472 63.1762L140.554 62.764L140.636 62.2694L140.719 61.7748L140.801 61.3627V60.8681V60.4559L140.719 59.9614V59.5492L140.636 59.0546L140.472 58.6425L140.307 58.2303L141.378 57.5709L141.543 58.1479L141.708 58.7249L141.79 59.3019L141.873 59.8789L141.955 60.4559V60.9505L141.873 61.5275V62.1046L141.79 62.6816L141.626 63.1762L141.543 63.7532L141.378 64.2478L141.213 64.7424L140.966 65.2369L140.801 65.7315L140.554 66.1437L140.307 66.6383L140.059 67.0504L139.812 67.4626L139.565 67.8747L139.235 68.2869L138.988 68.6166L138.658 68.9463L138.411 69.2761L138.081 69.6058L137.751 69.8531L137.504 70.1004L137.174 70.2652L136.845 70.5125L136.597 70.595L136.268 70.7598L136.02 70.8423Z" fill="black"/>
<path fill-rule="evenodd" clip-rule="evenodd" d="M127.862 64.7425C130.5 64.8249 131.818 66.0614 132.478 69.441C132.478 69.7708 132.808 74.0572 134.126 73.4802C136.105 72.5734 129.758 73.9748 127.367 73.9748C124.729 73.8923 122.669 71.7491 122.833 69.1938C122.916 66.6384 125.224 64.66 127.862 64.7425Z" fill="#98EFE4"/>
<path fill-rule="evenodd" clip-rule="evenodd" d="M142.368 63.4235C143.769 63.8356 145.912 65.5667 145.747 68.122C145.582 70.6774 143.851 72.6557 141.873 72.5733C140.801 72.5733 140.142 73.4801 139.483 72.4909C138.988 71.6666 139.07 68.0396 138.823 66.968C138.081 63.2586 140.966 63.0113 142.368 63.4235Z" fill="#98EFE4"/>
<path d="M147.809 121.785C144.759 130.522 136.928 136.54 129.18 137.282" stroke="black" stroke-width="1.46007"/>
<path fill-rule="evenodd" clip-rule="evenodd" d="M147.728 122.114C149.129 123.186 144.431 135.551 143.854 134.397C143.442 133.655 142.37 131.347 141.793 130.852C142.37 129.616 144.76 130.605 146.904 124.505C146.986 124.175 148.058 122.362 147.728 122.114Z" fill="black"/>
</svg>
